Coordinates
version=1
nRows=6
nColumns=40
inDegrees=yes

Units are S.I. units (second, meters, Newtons, ...)
If the header above contains a line with 'inDegrees', this indicates whether rotational values are in degrees (yes) or radians (no).

endheader
time	pelvis_tilt	pelvis_list	pelvis_rotation	pelvis_tx	pelvis_ty	pelvis_tz	hip_flexion_r	hip_adduction_r	hip_rotation_r	knee_angle_r	knee_angle_r_beta	ankle_angle_r	subtalar_angle_r	mtp_angle_r	hip_flexion_l	hip_adduction_l	hip_rotation_l	knee_angle_l	knee_angle_l_beta	ankle_angle_l	subtalar_angle_l	mtp_angle_l	lumbar_extension	lumbar_bending	lumbar_rotation	arm_flex_r	arm_add_r	arm_rot_r	elbow_flex_r	pro_sup_r	wrist_flex_r	wrist_dev_r	arm_flex_l	arm_add_l	arm_rot_l	elbow_flex_l	pro_sup_l	wrist_flex_l	wrist_dev_l
      8.55000000000000071054	      4.23380234566020519082	     -1.51437499197418956598	   -171.16892106930771433326	      0.26045455670981515484	      0.91409114859091367133	     -0.61563447554152805896	     22.21902044846824608726	    -14.09473658444725074901	    -20.11348790198494995707	     20.87918445129535172100	      0.36441051380630951062	      0.07557499679021885408	      0.00000000000000000000	      0.00000000000000000000	     24.40463277099486560928	     -4.51419527629677741487	     -4.68100557467186373373	     18.50433054833883517176	      0.32296149394588041792	     -2.26978515255901491798	      0.00000000000000000000	      0.00000000000000000000	    -28.25349901730876922556	      2.81524212890376368534	     -9.70397905750762390653	      0.00000000000000000000	    -13.57336028340192513042	      0.00000000000000000000	     74.60539873065745553049	     45.00339872078705383274	      0.00000000000000000000	      0.00000000000000000000	      0.00000000000000000000	    -13.57336028340192513042	      0.00000000000000000000	     74.60539873065745553049	     45.00339872078705383274	      0.00000000000000000000	      0.00000000000000000000
      8.55499999999999971578	      4.00975615533159768233	     -1.70968448843354114963	   -171.45292399142013550772	      0.25921971834514478950	      0.91471206791316195250	     -0.61610633003708981104	     21.90380422308659902342	    -14.12565721213331038086	    -19.88494792506602237836	     20.78158428823195436053	      0.36270706961036985883	      0.16506243752893953736	      0.00000000000000000000	      0.00000000000000000000	     23.88188379689022511343	     -4.47372753994799055022	     -5.02961685237452549302	     18.28942271226863880429	      0.31921064461811926583	     -2.23830684405682589500	      0.00000000000000000000	      0.00000000000000000000	    -27.95199229415007735611	      2.45312780765012661277	     -9.61548030109292817258	      0.00000000000000000000	    -13.59391851567894526909	      0.00000000000000000000	     74.61585404717129677010	     45.00319119946971113677	      0.00000000000000000000	      0.00000000000000000000	      0.00000000000000000000	    -13.59391851567894526909	      0.00000000000000000000	     74.61585404717129677010	     45.00319119946971113677	      0.00000000000000000000	      0.00000000000000000000
      8.56000000000000049738	      3.75659691400249950988	     -1.81403091584977516071	   -171.64932285260465505417	      0.25802403779200405731	      0.91533109025007519666	     -0.61643442024498029674	     21.52587227226611688025	    -14.09621509009842910132	    -19.79094620739940779686	     20.65447647605979142327	      0.36048861978295909658	      0.21021552447234231886	      0.00000000000000000000	      0.00000000000000000000	     23.38714981050564034604	     -4.48777595272785667646	     -5.25230302309773744440	     18.12710649731153011999	      0.31637769223774286909	     -2.16054577117048784984	      0.00000000000000000000	      0.00000000000000000000	    -27.66496951851951280332	      2.23656055276156795486	     -9.55396222600879774234	      0.00000000000000000000	    -13.61259459041749053654	      0.00000000000000000000	     74.62518443146230140428	     45.00301568430664644893	      0.00000000000000000000	      0.00000000000000000000	      0.00000000000000000000	    -13.61259459041749053654	      0.00000000000000000000	     74.62518443146230140428	     45.00301568430664644893	      0.00000000000000000000	      0.00000000000000000000
      8.56499999999999950262	      3.64961406261442755650	     -1.75349703340235252291	   -171.80102072316958583542	      0.25689880586142566088	      0.91562484643303998499	     -0.61668990124858169555	     21.31360466184834123737	    -13.93421257420326853094	    -19.74834773656350961346	     20.52943652229578574975	      0.35830626089323575068	      0.20929029101929286227	      0.00000000000000000000	      0.00000000000000000000	     23.16815825996897615369	     -4.63376464497353079963	     -5.33723222797566432263	     18.10621633954379916531	      0.31601309020343487655	     -2.02908108090766514664	      0.00000000000000000000	      0.00000000000000000000	    -27.18755472542054718588	      2.19053468207980461813	     -9.49097362931269827868	      0.00000000000000000000	    -13.62796672198604497339	      0.00000000000000000000	     74.63266931544261240106	     45.00288584592156126973	      0.00000000000000000000	      0.00000000000000000000	      0.00000000000000000000	    -13.62796672198604497339	      0.00000000000000000000	     74.63266931544261240106	     45.00288584592156126973	      0.00000000000000000000	      0.00000000000000000000
      8.57000000000000028422	      3.25223100184560642845	     -1.96413801180775782207	   -172.05663474197038453894	      0.25554276880421783469	      0.91653234609024902824	     -0.61702829529044977974	     20.78017730168639687349	    -13.98723555410418306622	    -19.60123815255120405254	     20.41174620170166065236	      0.35625217730114056014	      0.26675433578346829933	      0.00000000000000000000	      0.00000000000000000000	     22.43303846388506883613	     -4.56380378291483701503	     -5.71452331872546892555	     17.85703684005115121636	      0.31166408750881663403	     -1.94800696236317549825	      0.00000000000000000000	      0.00000000000000000000	    -27.07818100767959279551	      1.86632179162591360644	     -9.39659532370851380279	      0.00000000000000000000	    -13.64503613951498017798	      0.00000000000000000000	     74.64098313483908953003	     45.00274024484443913252	      0.00000000000000000000	      0.00000000000000000000	      0.00000000000000000000	    -13.64503613951498017798	      0.00000000000000000000	     74.64098313483908953003	     45.00274024484443913252	      0.00000000000000000000	      0.00000000000000000000
      8.57499999999999928946	      3.06591331706137548707	     -1.99266395436675192165	   -172.25342728764732669333	      0.25431834125897889720	      0.91699611484438392495	     -0.61731428133302845840	     20.49496899375446190561	    -13.90002379938829690786	    -19.50313315742431541366	     20.30589330030215577949	      0.35440469564893029020	      0.29200290802715067606	      0.00000000000000000000	      0.00000000000000000000	     22.05480346782389489135	     -4.63799724993066675438	     -5.89442317314150443508	     17.75618052678064628935	      0.30990381277082346134	     -1.85552870629354771381	      0.00000000000000000000	      0.00000000000000000000	    -26.69770409595874127717	      1.73748145868405079462	     -9.31939306428830605000	      0.00000000000000000000	    -13.66127353361352270156	      0.00000000000000000000	     74.64877996532055703938	     45.00260917067251398294	      0.00000000000000000000	      0.00000000000000000000	      0.00000000000000000000	    -13.66127353361352270156	      0.00000000000000000000	     74.64877996532055703938	     45.00260917067251398294	      0.00000000000000000000	      0.00000000000000000000
